<svg width="235" height="348" viewBox="0 0 235 348" fill="none" xmlns="http://www.w3.org/2000/svg">
<path fill-rule="evenodd" clip-rule="evenodd" d="M175.174 132.746C191.844 138.43 205.571 150.46 213.349 166.2C221.127 181.94 222.323 200.107 216.673 216.722H261.008C263.803 202.637 263.803 188.144 261.008 174.059C256.752 152.98 246.335 133.623 231.063 118.421C215.792 103.218 196.348 92.8462 175.174 88.6095V45.2711C215.154 50.9751 251.233 72.2236 275.505 104.361C299.777 136.498 310.263 176.902 304.665 216.722H347.828C349.391 202.543 349.391 188.238 347.828 174.059C342.954 130.141 323.197 89.1867 291.812 57.9432C260.428 26.6997 219.29 7.03145 175.174 2.1785C160.83 0.607167 146.355 0.607167 132.011 2.1785V45.1486C99.3044 49.7508 68.9874 64.8134 45.6306 88.0655C22.2738 111.318 7.1433 141.499 2.52036 174.059C-2.08078 206.236 3.82562 239.032 19.3685 267.614C34.9114 296.195 59.2681 319.048 88.8474 332.803C102.516 339.162 117.066 343.445 132.011 345.51C146.329 347.497 160.856 347.497 175.174 345.51V259.569H132.011V302.54C110.827 298.326 91.3711 287.962 76.0959 272.755C60.8206 257.548 50.4102 238.179 46.1773 217.09C43.3822 203.005 43.3822 188.512 46.1773 174.427C50.4102 153.338 60.8206 133.969 76.0959 118.763C91.3711 103.556 110.827 93.1918 132.011 88.9778V217.09H175.174V132.746Z" stroke="#B29063" stroke-width="2" stroke-miterlimit="22.93"/>
</svg>
