<svg width="64" height="64" viewBox="0 0 64 64" fill="none" xmlns="http://www.w3.org/2000/svg">
<path d="M36.7515 58.5134V51.5309H27.5191V58.5134M36.7515 58.5134H27.5191M36.7515 58.5134L53.3538 63M27.5191 58.5134L10.9088 63M40.914 22.6303C41.1787 22.7681 41.401 22.9763 41.5568 23.2323C41.7125 23.4884 41.7957 23.7826 41.7975 24.083C41.7975 24.4005 41.7041 24.7108 41.5292 24.9748C41.3543 25.2388 41.1057 25.4445 40.8148 25.566C40.5239 25.6875 40.2039 25.7193 39.8951 25.6573C39.5863 25.5954 39.3027 25.4425 39.0801 25.218C38.8575 24.9936 38.7059 24.7075 38.6445 24.3962C38.583 24.0848 38.6146 23.762 38.7351 23.4687C38.8555 23.1754 39.0596 22.9247 39.3213 22.7483C39.5831 22.572 39.8908 22.4778 40.2057 22.4778C40.4498 22.4776 40.6912 22.5296 40.914 22.6303ZM40.914 22.6303C41.1759 22.7777 41.3924 22.9946 41.5399 23.2579C41.6873 23.5213 41.7599 23.8205 41.7497 24.1228C41.7497 24.5485 41.582 24.9568 41.2835 25.2578C40.985 25.5588 40.5801 25.7279 40.1579 25.7279C39.7358 25.7279 39.3309 25.5588 39.0324 25.2578C38.7338 24.9568 38.5661 24.5485 38.5661 24.1228C38.5645 23.898 38.6098 23.6754 38.6989 23.4694C38.788 23.2634 38.919 23.0786 39.0835 22.9269M40.914 22.6303L40.9538 22.6299C40.7274 22.5214 40.4802 22.4639 40.2295 22.4614C40.0174 22.458 39.8067 22.4975 39.6099 22.5774C39.4131 22.6574 39.2341 22.7762 39.0835 22.9269M40.914 22.6303L46.9787 10.5268M32.0557 42.0527H62.9602V45.6643M32.0557 42.0527L32.0637 44.9741C32.3105 44.9575 32.558 44.9923 32.791 45.0761C33.0239 45.16 33.2373 45.2912 33.418 45.4616C33.5986 45.6321 33.7425 45.8381 33.841 46.0669C33.9394 46.2957 33.9902 46.5425 33.9902 46.7919C33.9902 47.0414 33.9394 47.2881 33.841 47.517C33.7425 47.7458 33.5986 47.9518 33.418 48.1222C33.2373 48.2927 33.0239 48.4239 32.791 48.5077C32.558 48.5916 32.3105 48.6263 32.0637 48.6098V51.5392H33.8863C41.4313 51.5071 62.7294 51.1139 62.9602 45.6643M32.0557 42.0527H17.7217M62.9602 45.6643L62.9602 5.53463C62.9581 4.33262 62.4836 3.18046 61.6408 2.33051C60.7979 1.48056 59.6554 1.00212 58.4634 1H5.64802C4.45677 1.00213 3.31504 1.48082 2.47345 2.331C1.63186 3.18118 1.15919 4.33336 1.15919 5.53463V45.664C1.31837 51.2179 23.6033 51.5389 30.7664 51.5389M17.7217 42.0527H32.0478V44.9741C31.5903 45.0047 31.1616 45.2096 30.8484 45.5471C30.5352 45.8847 30.3609 46.3297 30.3609 46.7919C30.3609 47.2542 30.5352 47.6992 30.8484 48.0367C31.1616 48.3743 31.5903 48.5791 32.0478 48.6098V51.5392H30.7584C23.5954 51.5392 1.3104 51.2182 1.15122 45.6643V42.0527M17.7217 42.0527H1.15122M17.7217 42.0527L63 42.0526V5.55891C62.9979 4.35691 62.5235 3.20474 61.6806 2.35479C60.8378 1.50485 59.6952 1.02642 58.5032 1.0243H17.7217M17.7217 42.0527L17.7217 1.0243M17.7217 42.0527L1.15919 42.0526V5.55891C1.15919 4.35764 1.63186 3.20546 2.47345 2.35528C3.31504 1.50511 4.45677 1.02642 5.64802 1.0243H17.7217M1.15122 42.0527H1M39.0835 22.9269C39.3803 22.6508 39.77 22.4986 40.1738 22.5014C40.4245 22.5039 40.6716 22.5614 40.8981 22.6699C41.1628 22.8077 41.3851 23.0159 41.5408 23.2719C41.6965 23.528 41.7798 23.8222 41.7815 24.1226C41.7746 24.3858 41.7036 24.6433 41.5748 24.8723C41.446 25.1013 41.2633 25.2949 41.0428 25.4359C40.8223 25.5769 40.5708 25.6611 40.3104 25.6809C40.05 25.7008 39.7888 25.6558 39.5498 25.5498C39.3107 25.4439 39.1012 25.2803 38.9397 25.0734C38.7781 24.8666 38.6695 24.6228 38.6235 24.3636C38.5774 24.1044 38.5952 23.8378 38.6754 23.5872C38.7557 23.3367 38.8958 23.11 39.0835 22.9269ZM26.0706 26.3377C25.8174 26.6104 25.4779 26.7855 25.1105 26.8329C24.7431 26.8802 24.3708 26.7969 24.0577 26.5972C23.7447 26.3976 23.5105 26.0941 23.3955 25.739C23.2805 25.3839 23.2919 24.9995 23.4277 24.652C23.5635 24.3045 23.8153 24.0157 24.1396 23.8352C24.464 23.6548 24.8405 23.594 25.2045 23.6634C25.5684 23.7329 25.897 23.9281 26.1335 24.2156C26.3701 24.503 26.4998 24.8646 26.5004 25.2382C26.501 25.6465 26.3473 26.0396 26.0706 26.3377ZM26.0706 26.3377L30.3286 30.3188M17.7217 5.77555V38.473M17.7217 38.473H50.1861M17.7217 38.473L24.1207 26.6593M46.9787 10.5268L47.3129 13.6007M46.9787 10.5268L44.3363 12.0758M35.3348 18.729L39.0993 22.8864M31.8329 29.8288L33.9261 19.1303M24.1207 26.6593C23.7827 26.4706 23.5243 26.1642 23.3936 25.7975C23.263 25.4309 23.269 25.0289 23.4107 24.6664C23.5523 24.3039 23.8198 24.0057 24.1633 23.8275C24.5068 23.6492 24.9029 23.603 25.2777 23.6975C25.6525 23.792 25.9805 24.0207 26.2004 24.341C26.4203 24.6613 26.5172 25.0514 26.473 25.4384C26.4288 25.8254 26.2465 26.183 25.9601 26.4446C25.6738 26.7061 25.3029 26.8536 24.9166 26.8597C24.6385 26.8641 24.364 26.7951 24.1207 26.6593ZM34.2444 15.9043C34.5593 15.9043 34.867 15.9984 35.1288 16.1748C35.3905 16.3512 35.5946 16.6019 35.7151 16.8952C35.8355 17.1885 35.867 17.5113 35.8056 17.8226C35.7442 18.134 35.5926 18.42 35.37 18.6445C35.1474 18.869 34.8638 19.0219 34.555 19.0838C34.2462 19.1457 33.9261 19.114 33.6353 18.9925C33.3444 18.871 33.0958 18.6652 32.9209 18.4013C32.746 18.1373 32.6527 17.8269 32.6527 17.5095C32.6527 17.0838 32.8204 16.6755 33.1189 16.3744C33.4174 16.0734 33.8223 15.9043 34.2444 15.9043ZM32.0557 44.9739C32.3025 44.9573 32.55 44.9921 32.783 45.0759C33.0159 45.1598 33.2293 45.291 33.4099 45.4614C33.5905 45.6319 33.7345 45.8379 33.833 46.0667C33.9314 46.2955 33.9822 46.5423 33.9822 46.7917C33.9822 47.0412 33.9314 47.288 33.833 47.5168C33.7345 47.7456 33.5905 47.9516 33.4099 48.122C33.2293 48.2925 33.0159 48.4237 32.783 48.5075C32.55 48.5914 32.3025 48.6262 32.0557 48.6096C31.5983 48.5789 31.1695 48.3741 30.8563 48.0365C30.5431 47.699 30.3688 47.254 30.3688 46.7917C30.3688 46.3295 30.5431 45.8845 30.8563 45.5469C31.1695 45.2094 31.5983 45.0046 32.0557 44.9739ZM31.5145 29.8054C31.8293 29.8054 32.1371 29.8995 32.3988 30.0759C32.6606 30.2523 32.8646 30.503 32.9851 30.7963C33.1056 31.0896 33.1371 31.4123 33.0757 31.7237C33.0143 32.0351 32.8627 32.3211 32.64 32.5456C32.4174 32.7701 32.1338 32.923 31.825 32.9849C31.5163 33.0468 31.1962 33.015 30.9053 32.8935C30.6145 32.7721 30.3659 32.5663 30.191 32.3023C30.0161 32.0384 29.9227 31.728 29.9227 31.4106C29.9199 31.0034 30.0707 30.6103 30.3445 30.311C30.4945 30.1501 30.6759 30.0221 30.8772 29.9351C31.0785 29.8481 31.2955 29.804 31.5145 29.8054ZM24.8927 26.8596C25.279 26.8535 25.6499 26.7059 25.9363 26.4444C26.2226 26.1829 26.4049 25.8253 26.4491 25.4382C26.4933 25.0512 26.3964 24.6612 26.1765 24.3409C25.9566 24.0206 25.6286 23.7918 25.2538 23.6974C24.879 23.6029 24.4829 23.6491 24.1394 23.8273C23.7959 24.0056 23.5284 24.3037 23.3868 24.6662C23.2452 25.0287 23.2391 25.4307 23.3698 25.7974C23.5004 26.164 23.7588 26.4702 24.0968 26.6589C24.3402 26.7948 24.6146 26.864 24.8927 26.8596ZM33.1302 31.4263C33.1302 31.0006 32.9625 30.5923 32.664 30.2913C32.3654 29.9902 31.9606 29.8211 31.5384 29.8211C31.3155 29.8195 31.0948 29.8651 30.8905 29.955C30.6863 30.0449 30.503 30.177 30.3525 30.3428C30.0787 30.6421 29.9279 31.0351 29.9307 31.4424C29.9307 31.8681 30.0984 32.2764 30.3969 32.5774C30.6954 32.8784 31.1003 33.0475 31.5225 33.0475C31.9447 33.0475 32.3495 32.8784 32.648 32.5774C32.9466 32.2764 33.1143 31.8681 33.1143 31.4424L33.1302 31.4263ZM35.8999 17.5335C35.8999 17.216 35.8065 16.9057 35.6316 16.6417C35.4567 16.3778 35.2081 16.172 34.9173 16.0505C34.6264 15.929 34.3064 15.8973 33.9976 15.9592C33.6888 16.0211 33.4052 16.174 33.1825 16.3985C32.9599 16.623 32.8083 16.909 32.7469 17.2204C32.6855 17.5317 32.717 17.8545 32.8375 18.1478C32.958 18.4411 33.162 18.6918 33.4238 18.8682C33.6855 19.0445 33.9933 19.1387 34.3081 19.1387C34.7303 19.1387 35.1352 18.9696 35.4337 18.6685C35.7322 18.3675 35.8999 17.9592 35.8999 17.5335Z" stroke="#B29063" stroke-width="1.3" stroke-linecap="round" stroke-linejoin="round"/>
</svg>
