<svg width="50" height="63" viewBox="0 0 50 63" fill="none" xmlns="http://www.w3.org/2000/svg">
<path d="M49.4852 63H0.514806C0.37827 63 0.247333 62.9454 0.150787 62.8484C0.0542415 62.7514 0 62.6198 0 62.4826V0.517391C0 0.380176 0.0542415 0.248551 0.150787 0.151525C0.247333 0.0544992 0.37827 0 0.514806 0H39.1019C39.2383 0.000699251 39.369 0.0549748 39.4662 0.151234L49.8416 10.5782C49.9374 10.6759 49.9914 10.8073 49.9921 10.9444V62.4826C49.9921 62.6185 49.939 62.7489 49.8441 62.8457C49.7493 62.9425 49.6204 62.9979 49.4852 63ZM1.03754 61.9652H48.9704V11.1593L38.8959 1.03473H1.03754V61.9652Z" fill="#B29063"/>
<path d="M49.4852 12.3534H39.1098C38.9732 12.3534 38.8423 12.2988 38.7457 12.2018C38.6492 12.1048 38.595 11.9732 38.595 11.836V1.40896C38.595 1.27174 38.6492 1.14012 38.7457 1.04309C38.8423 0.946064 38.9732 0.891565 39.1098 0.891565C39.2463 0.891565 39.3773 0.946064 39.4738 1.04309C39.5703 1.14012 39.6246 1.27174 39.6246 1.40896V11.3425H49.4852C49.6217 11.3425 49.7527 11.397 49.8492 11.494C49.9458 11.591 50 11.7227 50 11.8599C50 11.9971 49.9458 12.1287 49.8492 12.2257C49.7527 12.3227 49.6217 12.3772 49.4852 12.3772V12.3534Z" fill="#B29063"/>
<path d="M44.1391 40.2116H5.84506C5.70853 40.2116 5.57759 40.157 5.48104 40.06C5.3845 39.963 5.33026 39.8314 5.33026 39.6942C5.33026 39.5569 5.3845 39.4254 5.48104 39.3284C5.57759 39.2313 5.70853 39.1768 5.84506 39.1768H44.1391C44.2756 39.1768 44.4066 39.2313 44.5031 39.3284C44.5997 39.4254 44.6539 39.5569 44.6539 39.6942C44.6539 39.8314 44.5997 39.963 44.5031 40.06C44.4066 40.157 44.2756 40.2116 44.1391 40.2116Z" fill="#B29063"/>
<path d="M44.1391 51.1404H5.84506C5.70853 51.1404 5.57759 51.0859 5.48104 50.9888C5.3845 50.8918 5.33026 50.7602 5.33026 50.623C5.33026 50.4858 5.3845 50.3542 5.48104 50.2572C5.57759 50.1601 5.70853 50.1056 5.84506 50.1056H44.1391C44.2756 50.1056 44.4066 50.1601 44.5031 50.2572C44.5997 50.3542 44.6539 50.4858 44.6539 50.623C44.6539 50.7602 44.5997 50.8918 44.5031 50.9888C44.4066 51.0859 44.2756 51.1404 44.1391 51.1404Z" fill="#B29063"/>
<path d="M44.1391 18.4183H20.9726C20.836 18.4183 20.7051 18.3638 20.6085 18.2668C20.512 18.1698 20.4578 18.0381 20.4578 17.9009C20.4578 17.7637 20.512 17.6321 20.6085 17.5351C20.7051 17.4381 20.836 17.3836 20.9726 17.3836H44.1391C44.2756 17.3836 44.4065 17.4381 44.5031 17.5351C44.5996 17.6321 44.6539 17.7637 44.6539 17.9009C44.6539 18.0381 44.5996 18.1698 44.5031 18.2668C44.4065 18.3638 44.2756 18.4183 44.1391 18.4183Z" fill="#B29063"/>
<path d="M44.1391 29.3153H5.84506C5.77746 29.3153 5.71052 29.3019 5.64806 29.2759C5.5856 29.2499 5.52885 29.2118 5.48104 29.1638C5.43324 29.1157 5.39532 29.0587 5.36945 28.9959C5.34358 28.9332 5.33026 28.8658 5.33026 28.7979C5.33026 28.73 5.34358 28.6627 5.36945 28.5999C5.39532 28.5372 5.43324 28.4801 5.48104 28.4321C5.52885 28.384 5.5856 28.3459 5.64806 28.3199C5.71052 28.2939 5.77746 28.2806 5.84506 28.2806H44.1391C44.2756 28.2806 44.4066 28.3351 44.5031 28.4321C44.5997 28.5291 44.6539 28.6607 44.6539 28.7979C44.6539 28.9351 44.5997 29.0667 44.5031 29.1638C44.4066 29.2608 44.2756 29.3153 44.1391 29.3153Z" fill="#B29063"/>
<path d="M44.1391 29.3153H5.84506C5.77746 29.3153 5.71052 29.3019 5.64806 29.2759C5.5856 29.2499 5.52885 29.2118 5.48104 29.1638C5.43324 29.1157 5.39532 29.0587 5.36945 28.9959C5.34358 28.9332 5.33026 28.8658 5.33026 28.7979C5.33026 28.73 5.34358 28.6627 5.36945 28.5999C5.39532 28.5372 5.43324 28.4801 5.48104 28.4321C5.52885 28.384 5.5856 28.3459 5.64806 28.3199C5.71052 28.2939 5.77746 28.2806 5.84506 28.2806H44.1391C44.2756 28.2806 44.4066 28.3351 44.5031 28.4321C44.5997 28.5291 44.6539 28.6607 44.6539 28.7979C44.6539 28.9351 44.5997 29.0667 44.5031 29.1638C44.4066 29.2608 44.2756 29.3153 44.1391 29.3153Z" fill="#B29063"/>
<path d="M16.3235 18.4182H5.8134C5.67686 18.4182 5.54592 18.3637 5.44937 18.2666C5.35282 18.1696 5.29859 18.038 5.29859 17.9008V7.36231C5.29859 7.22509 5.35282 7.09352 5.44937 6.99649C5.54592 6.89947 5.67686 6.84492 5.8134 6.84492H16.3235C16.46 6.84492 16.591 6.89947 16.6875 6.99649C16.784 7.09352 16.8383 7.22509 16.8383 7.36231V17.9167C16.8342 18.0511 16.7781 18.1787 16.682 18.2723C16.5859 18.3659 16.4573 18.4182 16.3235 18.4182ZM6.32821 17.3834H15.8324V7.83194H6.32821V17.3834Z" fill="#B29063"/>
</svg>
