<svg width="63" height="63" viewBox="0 0 63 63" fill="none" xmlns="http://www.w3.org/2000/svg">
<path d="M31.5 63C25.2696 63 19.179 61.1524 13.9987 57.6907C8.81841 54.2291 4.78097 49.309 2.39705 43.5527C0.0131211 37.7964 -0.610219 31.4624 0.60586 25.3517C1.82194 19.2411 4.82281 13.6284 9.22895 9.22334C13.6351 4.8183 19.2486 1.81884 25.3595 0.604307C31.4704 -0.610229 37.8043 0.0147157 43.56 2.4001C49.3157 4.78548 54.2348 8.82414 57.6951 14.0053C61.1555 19.1865 63.0016 25.2775 63 31.508C62.9916 39.859 59.6699 47.8654 53.7641 53.7697C47.8583 59.674 39.851 62.9937 31.5 63ZM31.5 1.04259C25.4745 1.04259 19.5843 2.82935 14.5743 6.17693C9.56433 9.52451 5.65951 14.2825 3.35366 19.8494C1.04781 25.4162 0.4445 31.5418 1.62001 37.4515C2.79553 43.3612 5.69707 48.7896 9.95773 53.0502C14.2184 57.3109 19.6468 60.2125 25.5565 61.388C31.4662 62.5635 37.5918 61.9602 43.1586 59.6543C48.7254 57.3485 53.4835 53.4436 56.831 48.4336C60.1786 43.4236 61.9653 37.5335 61.9653 31.508C61.9569 23.4306 58.7445 15.6865 53.033 9.975C47.3214 4.26346 39.5773 1.05102 31.5 1.04259Z" fill="#B29063"/>
<path d="M31.5 54.4046C26.9695 54.4046 22.5408 53.061 18.774 50.5439C15.0071 48.0267 12.0714 44.449 10.338 40.2633C8.60464 36.0775 8.1515 31.4717 9.03593 27.0284C9.92036 22.5851 12.1026 18.5039 15.3067 15.3009C18.5108 12.098 22.5928 9.91713 27.0364 9.03424C31.48 8.15136 36.0856 8.60608 40.2708 10.3409C44.4559 12.0757 48.0326 15.0127 50.5485 18.7804C53.0643 22.5482 54.4063 26.9773 54.4047 31.5078C54.3984 37.5799 51.9829 43.4013 47.6886 47.6941C43.3943 51.987 37.572 54.4004 31.5 54.4046ZM31.5 9.63768C27.1745 9.63768 22.9461 10.9203 19.3496 13.3235C15.7531 15.7266 12.9499 19.1422 11.2946 23.1385C9.63933 27.1347 9.20622 31.5321 10.0501 35.7745C10.8939 40.0169 12.9769 43.9137 16.0355 46.9723C19.0941 50.0309 22.991 52.1139 27.2333 52.9577C31.4757 53.8016 35.8731 53.3685 39.8693 51.7132C43.8655 50.0579 47.2812 47.2547 49.6843 43.6582C52.0874 40.0617 53.3701 35.8333 53.3701 31.5078C53.3638 25.7094 51.0576 20.1503 46.9575 16.0503C42.8575 11.9502 37.2984 9.644 31.5 9.63768Z" fill="#B29063"/>
<path d="M31.5 47.0429C28.4255 47.0429 25.4201 46.1311 22.8639 44.4229C20.3077 42.7146 18.3155 40.2867 17.1393 37.4461C15.9631 34.6055 15.6558 31.4799 16.2561 28.4646C16.8565 25.4493 18.3376 22.6798 20.5122 20.5064C22.6867 18.333 25.457 16.8533 28.4725 16.2545C31.4881 15.6556 34.6136 15.9646 37.4536 17.1422C40.2935 18.3198 42.7205 20.3133 44.4275 22.8704C46.1344 25.4275 47.0446 28.4333 47.043 31.5078C47.0367 35.6274 45.3969 39.5764 42.4831 42.4886C39.5694 45.4009 35.6196 47.0387 31.5 47.0429ZM31.5 16.9993C28.6305 16.9993 25.8254 17.8502 23.4395 19.4445C21.0536 21.0387 19.194 23.3046 18.0959 25.9557C16.9978 28.6067 16.7105 31.5239 17.2703 34.3383C17.8301 37.1526 19.2119 39.7378 21.241 41.7668C23.27 43.7959 25.8551 45.1777 28.6695 45.7375C31.4839 46.2973 34.4011 46.01 37.0521 44.9119C39.7032 43.8138 41.9691 41.9542 43.5633 39.5683C45.1575 37.1824 46.0084 34.3773 46.0084 31.5078C46.0063 27.6606 44.4771 23.9715 41.7567 21.2511C39.0363 18.5307 35.3472 17.0015 31.5 16.9993Z" fill="#B29063"/>
<path d="M31.5 39.5304C29.9115 39.5304 28.3586 39.0592 27.0379 38.1765C25.7171 37.2938 24.6879 36.0392 24.0804 34.5714C23.4728 33.1036 23.3142 31.4886 23.6247 29.9306C23.9352 28.3727 24.7008 26.9419 25.8246 25.8192C26.9485 24.6965 28.3801 23.9323 29.9383 23.6233C31.4965 23.3144 33.1114 23.4745 34.5786 24.0835C36.0458 24.6926 37.2994 25.723 38.1808 27.0446C39.0622 28.3662 39.5318 29.9196 39.5302 31.5081C39.5281 33.6365 38.6811 35.677 37.1754 37.1812C35.6697 38.6854 33.6284 39.5304 31.5 39.5304ZM31.5 24.5126C30.1164 24.5126 28.7639 24.9228 27.6135 25.6915C26.4631 26.4602 25.5664 27.5528 25.0369 28.8311C24.5075 30.1093 24.3689 31.5159 24.6389 32.8729C24.9088 34.2299 25.5751 35.4764 26.5534 36.4548C27.5318 37.4331 28.7782 38.0994 30.1353 38.3693C31.4923 38.6392 32.8988 38.5007 34.1771 37.9712C35.4554 37.4417 36.5479 36.5451 37.3166 35.3947C38.0853 34.2443 38.4956 32.8917 38.4956 31.5081C38.4956 29.6528 37.7586 27.8735 36.4466 26.5615C35.1347 25.2496 33.3554 24.5126 31.5 24.5126Z" fill="#B29063"/>
</svg>
