<svg width="64" height="63" viewBox="0 0 64 63" fill="none" xmlns="http://www.w3.org/2000/svg">
<path d="M30.1171 62.996C26.1856 63.0602 22.2805 62.3476 18.6295 60.8999C14.9785 59.4522 11.6545 57.2983 8.85139 54.5637C6.04823 51.829 3.82194 48.5685 2.30228 44.9719C0.782625 41.3754 0 37.5148 0 33.6153C0 29.7157 0.782625 25.8552 2.30228 22.2586C3.82194 18.6621 6.04823 15.4015 8.85139 12.6669C11.6545 9.93225 14.9785 7.7783 18.6295 6.33059C22.2805 4.88288 26.1856 4.17037 30.1171 4.23454C30.2554 4.23454 30.3881 4.28904 30.486 4.38606C30.5838 4.48308 30.6387 4.61464 30.6387 4.75185V33.094H59.2249C59.3626 33.096 59.4941 33.1512 59.5915 33.2478C59.6888 33.3443 59.7445 33.4747 59.7465 33.6113C59.7296 41.3994 56.6025 48.8638 51.0496 54.3709C45.4966 59.8779 37.9701 62.9792 30.1171 62.996ZM29.5955 5.26921C23.9852 5.36385 18.5271 7.09387 13.9014 10.2436C9.27563 13.3933 5.68688 17.8235 3.58235 22.982C1.47781 28.1404 0.950577 33.7991 2.06636 39.2526C3.18214 44.7062 5.89159 49.7136 9.85702 53.6506C13.8225 57.5876 18.8685 60.2802 24.3663 61.3928C29.864 62.5053 35.5704 61.9887 40.7741 59.9073C45.9779 57.8258 50.449 54.2716 53.63 49.6876C56.8111 45.1036 58.5615 39.6924 58.6631 34.1286H30.1171C29.9787 34.1286 29.8461 34.0741 29.7482 33.9771C29.6504 33.8801 29.5955 33.7485 29.5955 33.6113V5.26921Z" fill="#B29063"/>
<path d="M63.4783 29.91H34.3705C34.2321 29.91 34.0995 29.8555 34.0017 29.7585C33.9038 29.6615 33.8489 29.5299 33.8489 29.3927V0.517356C33.8489 0.38015 33.9038 0.248534 34.0017 0.151515C34.0995 0.0544954 34.2321 0 34.3705 0C42.2249 0.0168283 49.7527 3.11921 55.3058 8.62799C60.859 14.1368 63.9852 21.6031 64 29.3927C64 29.5299 63.945 29.6615 63.8472 29.7585C63.7493 29.8555 63.6167 29.91 63.4783 29.91ZM34.8922 28.8515H62.9808C62.8469 21.5049 59.8446 14.4964 54.6057 9.3008C49.3668 4.10518 42.2999 1.12765 34.8922 0.994878V28.8515Z" fill="#B29063"/>
<path d="M30.1171 62.996C29.9787 62.996 29.8461 62.9409 29.7483 62.8438C29.6505 62.7468 29.5955 62.6152 29.5955 62.478V33.6266C29.5955 33.4894 29.6505 33.3578 29.7483 33.2608C29.8461 33.1638 29.9788 33.1092 30.1171 33.1092C30.2555 33.1092 30.3882 33.1638 30.486 33.2608C30.5838 33.3578 30.6388 33.4894 30.6388 33.6266V62.494C30.6346 62.6284 30.5778 62.7559 30.4804 62.8495C30.3831 62.9431 30.2527 62.9961 30.1171 62.996Z" fill="#B29063"/>
<path d="M30.1171 34.1286L1.00128 34.1283C0.86293 34.1283 0.730243 34.0738 0.632415 33.9768C0.534588 33.8798 0.479638 33.7482 0.479638 33.611C0.479638 33.4738 0.534588 33.3422 0.632415 33.2452C0.730243 33.1482 0.86293 33.0937 1.00128 33.0937H30.1171C30.2555 33.0937 30.3882 33.1482 30.486 33.2452C30.5838 33.3422 30.6388 33.4738 30.6388 33.611C30.6388 33.7482 30.5838 33.8798 30.486 33.9768C30.3882 34.0738 30.2554 34.1286 30.1171 34.1286Z" fill="#B29063"/>
</svg>
