<svg width="24" height="42" viewBox="0 0 24 42" fill="none" xmlns="http://www.w3.org/2000/svg">
<path fill-rule="evenodd" clip-rule="evenodd" d="M9 20.5C9 21.0128 9.41973 21.4286 9.9375 21.4286H20.7992L16.7746 25.4148C16.4085 25.7775 16.4085 26.3654 16.7746 26.728C17.1407 27.0907 17.7343 27.0907 18.1004 26.728L23.7254 21.1566C24.0915 20.794 24.0915 20.206 23.7254 19.8434L18.1004 14.272C17.7343 13.9093 17.1407 13.9093 16.7746 14.272C16.4085 14.6346 16.4085 15.2225 16.7746 15.5852L20.7992 19.5714H9.9375C9.41973 19.5714 9 19.9872 9 20.5Z" fill="#172039"/>
<path fill-rule="evenodd" clip-rule="evenodd" d="M1.5 42C0.671573 42 1.31134e-07 41.3284 1.31134e-07 40.5L0 1.5C0 0.671574 0.671573 0 1.5 0C2.32843 0 3 0.671574 3 1.5L3 40.5C3 41.3284 2.32843 42 1.5 42Z" fill="#172039"/>
</svg>
