<svg width="49" height="39" viewBox="0 0 49 39" fill="none" xmlns="http://www.w3.org/2000/svg">
<path d="M45.4015 2.24384C42.5909 -0.747944 37.8346 -0.747944 34.8078 2.24384C31.9972 5.23562 31.9972 9.72328 35.024 12.5014C36.5374 13.9973 38.267 14.4247 39.9965 14.8521C43.4557 15.4931 48.6444 27.4603 31.9972 38.3589L32.4296 39C41.2937 34.5123 43.2395 30.2384 45.6177 26.3918C50.374 17.6301 49.9416 6.51781 45.4015 2.24384ZM13.4042 2.24384C10.5937 -0.747944 5.83733 -0.747944 2.81057 2.24384C0 5.23562 0 9.72328 3.02677 12.5014C4.54015 13.9973 6.26973 14.4247 7.99931 14.8521C11.4585 15.4931 16.6472 27.4603 0 38.3589L0.432396 39C9.29649 34.5123 11.2423 30.2384 13.6204 26.3918C18.3768 17.6301 17.9444 6.51781 13.4042 2.24384Z" fill="#B29063"/>
</svg>
