<svg width="443" height="268" viewBox="0 0 443 268" fill="none" xmlns="http://www.w3.org/2000/svg">
<path d="M440.424 2.21332H30.5076V238.605H440.424V2.21332Z" stroke="white" stroke-width="0.453447" stroke-miterlimit="10"/>
<path d="M30.5076 214.971H440.424" stroke="white" stroke-width="0.453447" stroke-miterlimit="10"/>
<path d="M30.5076 191.337H440.424" stroke="white" stroke-width="0.453447" stroke-miterlimit="10"/>
<path d="M30.5076 167.685H440.424" stroke="white" stroke-width="0.453447" stroke-miterlimit="10"/>
<path d="M30.5076 144.052H440.424" stroke="white" stroke-width="0.453447" stroke-miterlimit="10"/>
<path d="M30.5076 120.418H440.424" stroke="white" stroke-width="0.453447" stroke-miterlimit="10"/>
<path d="M30.5076 96.7659H440.424" stroke="white" stroke-width="0.453447" stroke-miterlimit="10"/>
<path d="M30.5076 73.1322H440.424" stroke="white" stroke-width="0.453447" stroke-miterlimit="10"/>
<path d="M30.5076 49.498H440.424" stroke="white" stroke-width="0.453447" stroke-miterlimit="10"/>
<path d="M30.5076 25.8465H440.424" stroke="white" stroke-width="0.453447" stroke-miterlimit="10"/>
<path d="M389.185 2.21332V238.605" stroke="white" stroke-width="0.453447" stroke-miterlimit="10"/>
<path d="M337.945 2.21332V238.605" stroke="white" stroke-width="0.453447" stroke-miterlimit="10"/>
<path d="M286.706 2.21332V238.605" stroke="white" stroke-width="0.453447" stroke-miterlimit="10"/>
<path d="M235.466 2.21332V238.605" stroke="white" stroke-width="0.453447" stroke-miterlimit="10"/>
<path d="M184.226 2.21332V238.605" stroke="white" stroke-width="0.453447" stroke-miterlimit="10"/>
<path d="M132.987 2.21332V238.605" stroke="white" stroke-width="0.453447" stroke-miterlimit="10"/>
<path d="M81.7469 2.21332V238.605" stroke="white" stroke-width="0.453447" stroke-miterlimit="10"/>
<g style="mix-blend-mode:screen">
<path d="M440.424 114.07L384.704 177.552L337.927 143.489L275.877 159.233L223.277 88.6766L167.05 190.249L30.5076 159.106V238.604H440.424V114.07Z" fill="white" fill-opacity="0.3"/>
</g>
<path d="M30.5076 120.418L81.9285 144.56L132.932 97.0201L184.208 73.2595L235.375 120.618L286.651 49.6802L337.927 97.2015L389.184 2.21332L440.424 144.052" stroke="white" stroke-width="3" stroke-miterlimit="10"/>
<path d="M9.66766 234.959C9.66766 232.946 10.7378 231.73 12.207 231.73C13.6762 231.73 14.7464 232.946 14.7464 234.959C14.7464 236.972 13.6762 238.187 12.207 238.187C10.7378 238.187 9.66766 236.99 9.66766 234.959ZM14.0752 234.959C14.0752 233.272 13.3134 232.329 12.2614 232.329C11.2094 232.329 10.4476 233.272 10.4476 234.959C10.4476 236.646 11.2094 237.589 12.2614 237.589C13.3134 237.589 14.0752 236.664 14.0752 234.959Z" fill="white"/>
<path d="M8.16231 209.909V216.258H7.43675V210.49H5.93127V209.909H8.16231Z" fill="white"/>
<path d="M9.66766 213.084C9.66766 211.053 10.7378 209.856 12.207 209.856C13.6762 209.856 14.7464 211.053 14.7464 213.084C14.7464 215.116 13.6762 216.313 12.207 216.313C10.7378 216.313 9.66766 215.116 9.66766 213.084ZM14.0752 213.084C14.0752 211.38 13.3134 210.454 12.2614 210.454C11.2094 210.454 10.4476 211.38 10.4476 213.084C10.4476 214.789 11.2094 215.714 12.2614 215.714C13.3134 215.714 14.0752 214.789 14.0752 213.084Z" fill="white"/>
<path d="M8.88777 193.876V194.457H4.44397V193.876L7.07398 191.282C7.7995 190.575 7.92652 190.14 7.92652 189.704C7.92652 188.979 7.41865 188.526 6.4392 188.526C6.10225 188.489 5.76131 188.534 5.44551 188.657C5.12971 188.78 4.8484 188.978 4.62541 189.233L4.15381 188.834C4.43961 188.527 4.78913 188.287 5.17772 188.131C5.56631 187.974 5.9845 187.905 6.40289 187.927C7.69068 187.927 8.50695 188.58 8.50695 189.632C8.49526 190.021 8.39619 190.402 8.21723 190.747C8.03827 191.093 7.78398 191.393 7.47307 191.627L5.40533 193.876H8.88777Z" fill="white"/>
<path d="M9.66766 191.21C9.66766 189.179 10.7378 187.981 12.207 187.981C13.6762 187.981 14.7464 189.179 14.7464 191.21C14.7464 193.241 13.6762 194.439 12.207 194.439C10.7378 194.439 9.66766 193.241 9.66766 191.21ZM14.0752 191.21C14.0752 189.505 13.3134 188.58 12.2614 188.58C11.2094 188.58 10.4476 189.505 10.4476 191.21C10.4476 192.915 11.2094 193.84 12.2614 193.84C13.3134 193.84 14.0752 192.897 14.0752 191.21Z" fill="white"/>
<path d="M8.75985 170.678C8.75985 171.748 7.98 172.492 6.45641 172.492C5.61891 172.518 4.80248 172.227 4.17102 171.676L4.47933 171.15C5.01455 171.649 5.72514 171.916 6.45641 171.893C7.50841 171.893 8.08876 171.404 8.08876 170.606C8.08876 169.808 7.54462 169.354 6.27497 169.354H5.82152V168.864L7.63531 166.67H4.38867V166.089H8.46969V166.67L6.6559 168.937C8.07066 168.955 8.75985 169.662 8.75985 170.678Z" fill="white"/>
<path d="M9.66766 169.336C9.66766 167.304 10.7378 166.107 12.207 166.107C13.6762 166.107 14.7464 167.304 14.7464 169.336C14.7464 171.367 13.6762 172.564 12.207 172.564C10.7378 172.564 9.66766 171.349 9.66766 169.336ZM14.0752 169.336C14.0752 167.631 13.3134 166.706 12.2614 166.706C11.2094 166.706 10.4476 167.631 10.4476 169.336C10.4476 171.041 11.2094 171.966 12.2614 171.966C13.3134 171.966 14.0752 171.022 14.0752 169.336Z" fill="white"/>
<path d="M9.06875 148.967H7.79907V150.635H7.14613V148.967H3.51855V148.531L6.87402 144.305H7.59958L4.35283 148.423H7.10982V146.935H7.7446V148.423H9.01428L9.06875 148.967Z" fill="white"/>
<path d="M9.66766 147.443C9.66766 145.43 10.7378 144.215 12.207 144.215C13.6762 144.215 14.7464 145.43 14.7464 147.443C14.7464 149.457 13.6762 150.69 12.207 150.69C10.7378 150.69 9.66766 149.475 9.66766 147.443ZM14.0752 147.443C14.0752 145.757 13.3134 144.813 12.2614 144.813C11.2094 144.813 10.4476 145.757 10.4476 147.443C10.4476 149.13 11.2094 150.092 12.2614 150.092C13.3134 150.092 14.0752 149.148 14.0752 147.443Z" fill="white"/>
<path d="M8.85145 126.875C8.85145 127.963 8.08963 128.815 6.5479 128.815C5.7104 128.841 4.89397 128.55 4.26251 127.999L4.58898 127.473C4.8468 127.72 5.15124 127.913 5.48447 128.04C5.81771 128.168 6.17307 128.228 6.52975 128.217C7.61802 128.217 8.18025 127.691 8.18025 126.911C8.18025 126.131 7.67242 125.587 6.05815 125.587H4.71596L5.04243 122.394H8.50683V122.975H5.62285L5.38705 124.952H6.20328C8.1259 124.952 8.85145 125.75 8.85145 126.875Z" fill="white"/>
<path d="M9.66766 125.569C9.66766 123.556 10.7378 122.341 12.207 122.341C13.6762 122.341 14.7464 123.556 14.7464 125.569C14.7464 127.583 13.6762 128.816 12.207 128.816C10.7378 128.816 9.66766 127.601 9.66766 125.569ZM14.0752 125.569C14.0752 123.883 13.3134 122.939 12.2614 122.939C11.2094 122.939 10.4476 123.883 10.4476 125.569C10.4476 127.256 11.2094 128.218 12.2614 128.218C13.3134 128.218 14.0752 127.274 14.0752 125.569Z" fill="white"/>
<path d="M8.92408 105.001C8.92045 105.275 8.85977 105.546 8.74596 105.795C8.63215 106.045 8.46766 106.268 8.26295 106.451C8.05825 106.633 7.81777 106.771 7.55688 106.856C7.29598 106.94 7.02038 106.97 6.74751 106.942C5.06069 106.942 4.15381 105.781 4.15381 103.768C4.15381 101.754 5.33273 100.485 7.05583 100.485C7.57899 100.468 8.0977 100.586 8.5613 100.829L8.28919 101.355C7.91475 101.141 7.48636 101.041 7.05583 101.065C5.69549 101.065 4.80675 101.936 4.80675 103.659C4.80675 103.804 4.80675 103.985 4.80675 104.185C4.98559 103.831 5.26571 103.539 5.61135 103.345C5.95699 103.151 6.35252 103.065 6.74751 103.097C7.01893 103.06 7.29496 103.083 7.5571 103.162C7.81923 103.241 8.06142 103.375 8.26749 103.555C8.47356 103.736 8.63871 103.958 8.75194 104.207C8.86517 104.457 8.9239 104.727 8.92408 105.001ZM8.27115 105.001C8.27115 104.167 7.65445 103.623 6.675 103.623C6.47478 103.6 6.27204 103.619 6.07941 103.678C5.88678 103.737 5.70832 103.835 5.55522 103.966C5.40212 104.097 5.27765 104.258 5.18945 104.439C5.10125 104.621 5.05123 104.818 5.04255 105.019C5.04255 105.708 5.62295 106.38 6.72936 106.38C6.92306 106.4 7.11894 106.379 7.30425 106.319C7.48956 106.259 7.66022 106.161 7.80541 106.032C7.9506 105.902 8.06707 105.743 8.14727 105.566C8.22747 105.388 8.26967 105.196 8.27115 105.001Z" fill="white"/>
<path d="M9.66766 103.694C9.66766 101.681 10.7378 100.466 12.207 100.466C13.6762 100.466 14.7464 101.681 14.7464 103.694C14.7464 105.708 13.6762 106.923 12.207 106.923C10.7378 106.923 9.66766 105.726 9.66766 103.694ZM14.0752 103.694C14.0752 102.008 13.3134 101.064 12.2614 101.064C11.2094 101.064 10.4476 102.008 10.4476 103.694C10.4476 105.381 11.2094 106.324 12.2614 106.324C13.3134 106.324 14.0752 105.399 14.0752 103.694Z" fill="white"/>
<path d="M8.99672 78.6466V79.1L6.3305 85.0493H5.6231L8.23496 79.2814H4.97016V80.4785H4.33527V78.6647L8.99672 78.6466Z" fill="white"/>
<path d="M9.66766 81.8205C9.66766 79.7891 10.7378 78.592 12.207 78.592C13.6762 78.592 14.7464 79.7891 14.7464 81.8205C14.7464 83.852 13.6762 85.0491 12.207 85.0491C10.7378 85.0491 9.66766 83.852 9.66766 81.8205ZM14.0752 81.8205C14.0752 80.1337 13.3134 79.1905 12.2614 79.1905C11.2094 79.1905 10.4476 80.1337 10.4476 81.8205C10.4476 83.5073 11.2094 84.4505 12.2614 84.4505C13.3134 84.4505 14.0752 83.5255 14.0752 81.8205Z" fill="white"/>
<path d="M8.76083 61.3422C8.76083 62.4667 7.81768 63.156 6.2941 63.156C4.77052 63.156 3.84553 62.4486 3.84553 61.3422C3.84429 60.981 3.96557 60.63 4.1896 60.3467C4.41363 60.0634 4.72714 59.8644 5.07889 59.7823C4.78253 59.691 4.52439 59.5049 4.34414 59.2526C4.1639 59.0002 4.07157 58.6957 4.08133 58.3857C4.08133 57.3518 4.9519 56.717 6.2941 56.717C7.63631 56.717 8.54318 57.3518 8.54318 58.3857C8.54878 58.6973 8.4527 59.0022 8.26941 59.2542C8.08612 59.5062 7.82561 59.6916 7.52746 59.7823C7.87921 59.8644 8.19273 60.0634 8.41676 60.3467C8.64079 60.63 8.76207 60.981 8.76083 61.3422ZM8.08974 61.3422C8.08974 60.5622 7.41863 60.0725 6.27595 60.0725C5.13326 60.0725 4.46216 60.5622 4.46216 61.3422C4.46216 62.1221 5.11512 62.6118 6.27595 62.6118C7.43677 62.6118 8.08974 62.1221 8.08974 61.3422ZM6.27595 59.5284C7.27353 59.5284 7.85393 59.0931 7.85393 58.4038C7.85393 57.7146 7.23725 57.243 6.27595 57.243C5.31464 57.243 4.71611 57.6783 4.71611 58.3857C4.71611 59.0931 5.31465 59.5465 6.2941 59.5465L6.27595 59.5284Z" fill="white"/>
<path d="M9.66766 59.9456C9.66766 57.9141 10.7378 56.717 12.207 56.717C13.6762 56.717 14.7464 57.9141 14.7464 59.9456C14.7464 61.977 13.6762 63.1741 12.207 63.1741C10.7378 63.1741 9.66766 61.9589 9.66766 59.9456ZM14.0752 59.9456C14.0752 58.2406 13.3134 57.3156 12.2614 57.3156C11.2094 57.3156 10.4476 58.2406 10.4476 59.9456C10.4476 61.6505 11.2094 62.5756 12.2614 62.5756C13.3134 62.5756 14.0752 61.6324 14.0752 59.9456Z" fill="white"/>
<path d="M8.72516 38.0176C8.72516 40.176 7.54613 41.3006 5.82303 41.3006C5.29987 41.3177 4.78128 41.199 4.31767 40.9559L4.58967 40.4299C4.96411 40.6439 5.3925 40.7446 5.82303 40.7201C7.18338 40.7201 8.07212 39.8495 8.07212 38.1264C8.07212 37.9813 8.07212 37.7999 8.07212 37.6004C7.89327 37.9541 7.61327 38.2464 7.26762 38.4402C6.92198 38.6341 6.52645 38.7206 6.13146 38.6887C5.87024 38.7188 5.60552 38.695 5.35387 38.6188C5.10221 38.5425 4.86898 38.4155 4.66838 38.2455C4.46778 38.0755 4.30418 37.8661 4.1877 37.6304C4.07122 37.3947 4.00424 37.1375 3.99109 36.8749C3.99495 36.6 4.05559 36.3288 4.16921 36.0784C4.28284 35.8281 4.44707 35.6039 4.65144 35.4199C4.85582 35.236 5.09593 35.0963 5.35686 35.0095C5.61778 34.9228 5.89384 34.891 6.16766 34.916C7.81821 34.8253 8.72516 36.0769 8.72516 38.0176ZM7.83631 36.748C7.83631 36.0587 7.25591 35.3876 6.1495 35.3876C5.9558 35.3674 5.76004 35.3879 5.57472 35.4478C5.38941 35.5077 5.21864 35.6057 5.07345 35.7355C4.92826 35.8653 4.8119 36.0241 4.7317 36.2016C4.65151 36.3791 4.6093 36.5713 4.60783 36.7661C4.60783 37.6004 5.22452 38.1446 6.20397 38.1446C6.40419 38.1671 6.60694 38.1483 6.79956 38.0892C6.99219 38.0301 7.17054 37.932 7.32364 37.801C7.47674 37.67 7.60132 37.5089 7.68952 37.3278C7.77772 37.1466 7.82763 36.9493 7.83631 36.748Z" fill="white"/>
<path d="M9.66766 38.0716C9.66766 36.0401 10.7378 34.8249 12.207 34.8249C13.6762 34.8249 14.7464 36.0401 14.7464 38.0716C14.7464 40.103 13.6762 41.3001 12.207 41.3001C10.7378 41.3001 9.66766 40.0849 9.66766 38.0716ZM14.0752 38.0716C14.0752 36.3666 13.3134 35.4416 12.2614 35.4416C11.2094 35.4416 10.4476 36.3666 10.4476 38.0716C10.4476 39.7765 11.2094 40.7016 12.2614 40.7016C13.3134 40.7016 14.0752 39.704 14.0752 38.0716Z" fill="white"/>
<path d="M2.15841 13.0055V19.3719H1.50537V13.5859H0V13.0055H2.15841Z" fill="white"/>
<path d="M3.66412 16.1248C3.66412 14.0934 4.7343 12.8781 6.20347 12.8781C7.67264 12.8781 8.74271 14.0934 8.74271 16.1248C8.74271 18.1563 7.67264 19.3534 6.20347 19.3534C4.7343 19.3534 3.66412 18.2107 3.66412 16.1248ZM8.07162 16.1248C8.07162 14.4199 7.30983 13.4767 6.25783 13.4767C5.20583 13.4767 4.44404 14.4199 4.44404 16.1248C4.44404 17.8298 5.20583 18.7548 6.25783 18.7548C7.30983 18.7548 8.07162 17.9386 8.07162 16.1248Z" fill="white"/>
<path d="M9.66766 16.1248C9.66766 14.0934 10.7378 12.8781 12.207 12.8781C13.6762 12.8781 14.7464 14.0934 14.7464 16.1248C14.7464 18.1563 13.6762 19.3534 12.207 19.3534C10.7378 19.3534 9.66766 18.2107 9.66766 16.1248ZM14.0752 16.1248C14.0752 14.4199 13.3134 13.4767 12.2614 13.4767C11.2094 13.4767 10.4476 14.4199 10.4476 16.1248C10.4476 17.8298 11.2094 18.7548 12.2614 18.7548C13.3134 18.7548 14.0752 17.9386 14.0752 16.1248Z" fill="white"/>
<path d="M34.335 259.953V267.553H33.5551V260.642H31.7413V259.953H34.335Z" fill="white"/>
<path d="M86.246 266.863V267.552H80.8046V267.008L83.9787 263.906C84.8312 263.054 84.9945 262.546 84.9945 262.093C84.9945 261.222 84.3778 260.678 83.1807 260.678C82.793 260.654 82.4048 260.717 82.0442 260.861C81.6835 261.005 81.3593 261.228 81.0948 261.512L80.5507 261.041C80.8908 260.673 81.3077 260.385 81.7716 260.197C82.2356 260.009 82.7351 259.926 83.235 259.952C84.7768 259.952 85.7562 260.732 85.7562 262.002C85.743 262.47 85.6235 262.929 85.4066 263.343C85.1898 263.758 84.8814 264.118 84.5047 264.396L81.9292 266.936L86.246 266.863Z" fill="white"/>
<path d="M137.195 265.376C137.195 266.646 136.27 267.625 134.42 267.625C133.416 267.659 132.437 267.309 131.681 266.646L132.062 266.029C132.706 266.614 133.551 266.926 134.42 266.9C135.69 266.9 136.379 266.319 136.379 265.376C136.379 264.433 135.744 263.853 134.33 263.853H133.785V263.29L135.889 260.642H131.99V259.953H136.887V260.497L134.747 263.218C136.361 263.29 137.195 264.161 137.195 265.376Z" fill="white"/>
<path d="M188.634 265.558H187.11V267.553H186.33V265.558H182.032V264.995L186.058 259.953H187.002L183.12 264.868H186.421V263.055H187.183V264.868H188.707L188.634 265.558Z" fill="white"/>
<path d="M239.439 265.322C239.439 266.61 238.532 267.625 236.663 267.625C235.665 267.658 234.692 267.307 233.943 266.646L234.324 266.029C234.961 266.613 235.8 266.925 236.663 266.9C237.951 266.9 238.64 266.283 238.64 265.358C238.64 264.433 238.024 263.762 236.101 263.762H234.469L234.868 259.953H239.021V260.642H235.557L235.285 263.073H236.264C238.568 263.073 239.439 263.98 239.439 265.322Z" fill="white"/>
<path d="M290.587 265.286C290.583 265.614 290.512 265.938 290.377 266.237C290.242 266.536 290.046 266.804 289.802 267.024C289.559 267.244 289.272 267.411 288.961 267.514C288.649 267.618 288.32 267.656 287.993 267.626C285.962 267.626 284.855 266.229 284.855 263.817C284.855 261.404 286.27 259.881 288.338 259.881C288.968 259.86 289.593 260.004 290.151 260.298L289.843 260.987C289.394 260.722 288.877 260.595 288.356 260.624C286.705 260.624 285.653 261.676 285.653 263.744C285.653 263.907 285.653 264.143 285.653 264.361C285.871 263.941 286.207 263.594 286.619 263.362C287.032 263.13 287.503 263.023 287.975 263.055C288.296 263.011 288.623 263.036 288.934 263.128C289.245 263.219 289.533 263.376 289.78 263.586C290.026 263.797 290.226 264.057 290.365 264.35C290.504 264.643 290.579 264.962 290.587 265.286ZM289.807 265.286C289.807 264.288 289.081 263.654 287.993 263.654C287.514 263.613 287.04 263.764 286.672 264.074C286.305 264.383 286.076 264.826 286.034 265.304C286.034 266.157 286.723 266.936 288.047 266.936C288.272 266.951 288.496 266.92 288.708 266.845C288.92 266.77 289.114 266.652 289.279 266.499C289.444 266.347 289.575 266.162 289.666 265.956C289.757 265.751 289.805 265.529 289.807 265.304V265.286Z" fill="white"/>
<path d="M341.519 259.953V260.497L338.345 267.553H337.547L340.685 260.642H336.767V262.075H335.987V259.953H341.519Z" fill="white"/>
<path d="M391.959 265.449C391.959 266.791 390.817 267.625 389.003 267.625C387.189 267.625 386.065 266.791 386.065 265.449C386.057 265.022 386.2 264.606 386.469 264.274C386.737 263.942 387.115 263.716 387.534 263.635C387.18 263.525 386.872 263.302 386.656 263.001C386.44 262.7 386.328 262.337 386.337 261.966C386.337 260.733 387.389 259.953 389.003 259.953C390.617 259.953 391.687 260.733 391.687 261.966C391.678 262.335 391.557 262.692 391.34 262.99C391.123 263.289 390.82 263.513 390.472 263.635C390.883 263.736 391.249 263.968 391.517 264.295C391.785 264.622 391.94 265.027 391.959 265.449ZM391.143 265.449C391.143 264.506 390.345 263.925 389.003 263.925C387.661 263.925 386.845 264.506 386.845 265.449C386.845 266.392 387.643 266.972 389.003 266.972C390.363 266.972 391.161 266.428 391.161 265.431L391.143 265.449ZM389.003 263.309C390.182 263.309 390.817 262.764 390.817 261.948C390.817 261.132 390.055 260.57 389.003 260.57C387.951 260.57 387.189 261.078 387.189 261.93C387.189 262.783 387.824 263.29 389.021 263.29L389.003 263.309Z" fill="white"/>
<path d="M443.001 263.689C443.001 266.283 441.586 267.625 439.518 267.625C438.887 267.646 438.262 267.503 437.704 267.208L438.031 266.573C438.472 266.841 438.985 266.967 439.5 266.936C441.15 266.936 442.202 265.884 442.202 263.816C442.219 263.611 442.219 263.405 442.202 263.2C441.984 263.62 441.649 263.967 441.237 264.199C440.824 264.431 440.353 264.538 439.881 264.506C439.558 264.541 439.232 264.509 438.923 264.41C438.614 264.312 438.329 264.15 438.086 263.934C437.843 263.719 437.648 263.455 437.514 263.16C437.379 262.865 437.308 262.545 437.305 262.22C437.309 261.89 437.381 261.565 437.517 261.264C437.653 260.964 437.85 260.695 438.096 260.475C438.341 260.255 438.63 260.088 438.944 259.986C439.257 259.884 439.589 259.848 439.917 259.88C441.894 259.88 443.001 261.277 443.001 263.689ZM441.912 262.184C441.912 261.331 441.223 260.552 439.917 260.552C439.687 260.531 439.456 260.559 439.238 260.633C439.02 260.707 438.819 260.825 438.649 260.98C438.478 261.135 438.342 261.323 438.248 261.534C438.154 261.744 438.105 261.972 438.103 262.202C438.103 263.2 438.847 263.834 440.026 263.834C440.492 263.855 440.949 263.695 441.3 263.387C441.651 263.08 441.871 262.649 441.912 262.184Z" fill="white"/>
</svg>
