<svg width="26" height="26" viewBox="0 0 26 26" fill="none" xmlns="http://www.w3.org/2000/svg">
<path fill-rule="evenodd" clip-rule="evenodd" d="M9.75 12.8125C9.75 13.0886 9.97386 13.3125 10.25 13.3125H16.0429L13.8964 15.4589C13.7012 15.6542 13.7012 15.9708 13.8964 16.1661C14.0917 16.3613 14.4083 16.3613 14.6036 16.1661L17.6036 13.1661C17.7988 12.9708 17.7988 12.6542 17.6036 12.4589L14.6036 9.45895C14.4083 9.26368 14.0917 9.26368 13.8964 9.45895C13.7012 9.65421 13.7012 9.97079 13.8964 10.1661L16.0429 12.3125H10.25C9.97386 12.3125 9.75 12.5364 9.75 12.8125Z" fill="white"/>
<path fill-rule="evenodd" clip-rule="evenodd" d="M5.6875 24.375C5.23877 24.375 4.875 24.0112 4.875 23.5625L4.875 2.4375C4.875 1.98877 5.23877 1.625 5.6875 1.625C6.13623 1.625 6.5 1.98877 6.5 2.4375L6.5 23.5625C6.5 24.0112 6.13623 24.375 5.6875 24.375Z" fill="white"/>
</svg>
