<svg width="255" height="254" viewBox="0 0 255 254" fill="none" xmlns="http://www.w3.org/2000/svg">
<path fill-rule="evenodd" clip-rule="evenodd" d="M127.627 96.9537C139.746 101.094 149.726 109.855 155.38 121.319C161.035 132.783 161.904 146.014 157.797 158.115H190.029C192.061 147.857 192.061 137.301 190.029 127.043C186.935 111.691 179.361 97.5928 168.259 86.5201C157.156 75.4475 143.02 67.8938 127.627 64.8081V33.2437C156.693 37.3981 182.922 52.8739 200.568 76.28C218.214 99.6862 225.837 129.114 221.768 158.115H253.148C254.284 147.789 254.284 137.37 253.148 127.043C249.604 95.0567 235.241 65.2285 212.424 42.4731C189.607 19.7177 159.699 5.39285 127.627 1.85833C117.198 0.71389 106.675 0.71389 96.2464 1.85833V33.1545C72.4684 36.5064 50.4276 47.4768 33.447 64.4119C16.4663 81.347 5.46625 103.329 2.10532 127.043C-1.23976 150.478 3.05426 174.365 14.3541 195.181C25.654 215.997 43.3616 232.642 64.866 242.66C74.8036 247.291 85.3813 250.411 96.2464 251.915C106.656 253.362 117.217 253.362 127.627 251.915V189.322H96.2464V220.618C80.8456 217.549 66.7008 210.001 55.5956 198.925C44.4903 187.85 36.9218 173.743 33.8444 158.384C31.8123 148.125 31.8123 137.57 33.8444 127.311C36.9218 111.952 44.4903 97.8448 55.5956 86.7693C66.7008 75.6938 80.8456 68.1455 96.2464 65.0764V158.384H127.627V96.9537Z" stroke="#B29063" stroke-width="0.57" stroke-miterlimit="22.93"/>
</svg>
