<svg width="186" height="167" viewBox="0 0 186 167" fill="none" xmlns="http://www.w3.org/2000/svg">
<path fill-rule="evenodd" clip-rule="evenodd" d="M83.7324 63.4674C91.7461 66.2058 98.3453 72.0009 102.085 79.5834C105.824 87.1659 106.398 95.9176 103.682 103.922H124.996C126.34 97.1366 126.34 90.1547 124.996 83.3695C122.95 73.215 117.942 63.8901 110.6 56.5662C103.259 49.2423 93.9114 44.246 83.7324 42.205V21.3272C102.952 24.075 120.297 34.3113 131.965 49.793C143.634 65.2747 148.675 84.7392 145.984 103.922H166.734C167.485 97.0915 167.485 90.1998 166.734 83.3695C164.39 62.2126 154.892 42.4831 139.805 27.4318C124.717 12.3806 104.94 2.90559 83.7324 0.56773C76.8364 -0.189243 69.878 -0.189243 62.982 0.56773V21.2682C47.2588 23.4852 32.6842 30.7415 21.4557 41.943C10.2271 53.1445 2.95333 67.6841 0.730898 83.3695C-1.48105 98.8702 1.35839 114.67 8.83045 128.438C16.3025 142.207 28.0117 153.216 42.2317 159.843C48.8029 162.906 55.7974 164.97 62.982 165.964C69.8655 166.921 76.8489 166.921 83.7324 165.964V124.563H62.982V145.264C52.7982 143.234 43.4449 138.241 36.1015 130.915C28.7581 123.589 23.7534 114.259 21.7185 104.099C20.3748 97.314 20.3748 90.3322 21.7185 83.5469C23.7534 73.3876 28.7581 64.0567 36.1015 56.731C43.4449 49.4052 52.7982 44.4125 62.982 42.3825V104.099H83.7324V63.4674Z" fill="white"/>
<path d="M118.495 120.812H113.52C113.429 120.168 113.244 119.596 112.964 119.097C112.684 118.589 112.324 118.158 111.885 117.802C111.446 117.446 110.938 117.173 110.363 116.984C109.795 116.795 109.178 116.7 108.511 116.7C107.308 116.7 106.259 116.999 105.365 117.597C104.472 118.188 103.779 119.051 103.287 120.187C102.795 121.315 102.549 122.686 102.549 124.298C102.549 125.957 102.795 127.35 103.287 128.478C103.787 129.606 104.483 130.458 105.377 131.034C106.27 131.609 107.304 131.897 108.477 131.897C109.136 131.897 109.746 131.81 110.306 131.635C110.874 131.461 111.377 131.208 111.817 130.875C112.256 130.534 112.619 130.121 112.907 129.637C113.202 129.152 113.407 128.599 113.52 127.978L118.495 128.001C118.366 129.069 118.044 130.098 117.529 131.09C117.022 132.075 116.337 132.957 115.474 133.737C114.618 134.509 113.596 135.122 112.407 135.577C111.226 136.023 109.89 136.247 108.398 136.247C106.323 136.247 104.468 135.777 102.833 134.838C101.205 133.899 99.9175 132.54 98.971 130.761C98.0321 128.982 97.5626 126.827 97.5626 124.298C97.5626 121.762 98.0396 119.604 98.9937 117.825C99.9477 116.045 101.243 114.69 102.878 113.758C104.514 112.82 106.353 112.35 108.398 112.35C109.746 112.35 110.995 112.539 112.146 112.918C113.304 113.297 114.33 113.849 115.224 114.576C116.117 115.296 116.844 116.178 117.405 117.223C117.972 118.267 118.336 119.464 118.495 120.812Z" fill="white"/>
<path d="M129.063 136.269C127.458 136.269 126.072 135.982 124.906 135.406C123.74 134.831 122.843 134.051 122.215 133.067C121.594 132.075 121.283 130.969 121.283 129.75C121.283 128.841 121.465 128.035 121.828 127.331C122.192 126.627 122.699 125.979 123.35 125.389C124.001 124.791 124.759 124.196 125.622 123.606L130.131 120.641C130.714 120.27 131.142 119.88 131.414 119.471C131.687 119.055 131.823 118.604 131.823 118.12C131.823 117.658 131.638 117.23 131.267 116.836C130.896 116.443 130.369 116.25 129.688 116.257C129.234 116.257 128.84 116.359 128.507 116.564C128.174 116.761 127.912 117.022 127.723 117.347C127.541 117.666 127.45 118.021 127.45 118.415C127.45 118.9 127.587 119.392 127.859 119.892C128.132 120.391 128.495 120.921 128.95 121.482C129.404 122.034 129.9 122.633 130.437 123.276L141.466 135.929H136.423L127.223 125.684C126.618 124.995 126.012 124.276 125.406 123.526C124.808 122.769 124.308 121.966 123.907 121.118C123.506 120.263 123.305 119.335 123.305 118.336C123.305 117.207 123.566 116.193 124.089 115.292C124.619 114.391 125.361 113.679 126.315 113.156C127.269 112.626 128.382 112.361 129.654 112.361C130.896 112.361 131.967 112.615 132.868 113.122C133.777 113.622 134.473 114.288 134.958 115.121C135.45 115.947 135.696 116.855 135.696 117.847C135.696 118.945 135.424 119.941 134.878 120.834C134.341 121.72 133.584 122.515 132.607 123.219L127.859 126.638C127.216 127.108 126.739 127.588 126.428 128.081C126.125 128.565 125.974 129.031 125.974 129.478C125.974 130.03 126.11 130.526 126.383 130.965C126.655 131.405 127.042 131.753 127.541 132.01C128.041 132.26 128.628 132.385 129.302 132.385C130.119 132.385 130.926 132.2 131.721 131.829C132.524 131.45 133.25 130.916 133.902 130.227C134.56 129.531 135.087 128.705 135.48 127.751C135.874 126.797 136.071 125.741 136.071 124.582H140.08C140.08 126.006 139.925 127.289 139.615 128.433C139.304 129.568 138.872 130.56 138.32 131.408C137.767 132.249 137.135 132.938 136.423 133.475C136.196 133.619 135.976 133.756 135.764 133.884C135.552 134.013 135.333 134.149 135.106 134.293C134.242 134.99 133.277 135.493 132.209 135.804C131.149 136.114 130.101 136.269 129.063 136.269Z" fill="white"/>
<path d="M151.818 135.929H143.573V112.668H151.887C154.226 112.668 156.24 113.134 157.929 114.065C159.617 114.989 160.916 116.318 161.824 118.052C162.741 119.786 163.199 121.86 163.199 124.276C163.199 126.699 162.741 128.781 161.824 130.522C160.916 132.264 159.61 133.6 157.906 134.532C156.21 135.463 154.181 135.929 151.818 135.929ZM148.491 131.715H151.614C153.068 131.715 154.291 131.458 155.282 130.943C156.282 130.42 157.032 129.614 157.531 128.523C158.039 127.426 158.292 126.01 158.292 124.276C158.292 122.557 158.039 121.152 157.531 120.062C157.032 118.972 156.286 118.169 155.294 117.654C154.302 117.139 153.079 116.882 151.625 116.882H148.491V131.715Z" fill="white"/>
<path d="M118.495 151.565H113.52C113.429 150.921 113.244 150.349 112.964 149.85C112.684 149.342 112.324 148.911 111.885 148.555C111.446 148.199 110.938 147.926 110.363 147.737C109.795 147.548 109.178 147.453 108.511 147.453C107.308 147.453 106.259 147.752 105.365 148.351C104.472 148.941 103.779 149.804 103.287 150.94C102.795 152.068 102.549 153.439 102.549 155.052C102.549 156.71 102.795 158.103 103.287 159.231C103.787 160.359 104.483 161.211 105.377 161.787C106.27 162.362 107.304 162.65 108.477 162.65C109.136 162.65 109.746 162.563 110.306 162.389C110.874 162.214 111.377 161.961 111.817 161.628C112.256 161.287 112.619 160.874 112.907 160.39C113.202 159.905 113.407 159.352 113.52 158.731L118.495 158.754C118.366 159.822 118.044 160.852 117.529 161.843C117.022 162.828 116.337 163.71 115.474 164.49C114.618 165.262 113.596 165.875 112.407 166.33C111.226 166.776 109.89 167 108.398 167C106.323 167 104.468 166.53 102.833 165.592C101.205 164.653 99.9175 163.293 98.971 161.514C98.0321 159.735 97.5626 157.581 97.5626 155.052C97.5626 152.515 98.0396 150.357 98.9937 148.578C99.9477 146.798 101.243 145.443 102.878 144.512C104.514 143.573 106.353 143.103 108.398 143.103C109.746 143.103 110.995 143.293 112.146 143.671C113.304 144.05 114.33 144.602 115.224 145.329C116.117 146.049 116.844 146.931 117.405 147.976C117.972 149.021 118.336 150.217 118.495 151.565Z" fill="white"/>
<path d="M143.397 155.052C143.397 157.588 142.916 159.746 141.954 161.525C141 163.305 139.698 164.664 138.047 165.603C136.404 166.534 134.557 167 132.505 167C130.437 167 128.582 166.53 126.939 165.592C125.296 164.653 123.998 163.293 123.044 161.514C122.09 159.735 121.613 157.581 121.613 155.052C121.613 152.515 122.09 150.357 123.044 148.578C123.998 146.798 125.296 145.443 126.939 144.512C128.582 143.573 130.437 143.103 132.505 143.103C134.557 143.103 136.404 143.573 138.047 144.512C139.698 145.443 141 146.798 141.954 148.578C142.916 150.357 143.397 152.515 143.397 155.052ZM138.411 155.052C138.411 153.408 138.165 152.023 137.672 150.895C137.188 149.766 136.503 148.911 135.617 148.328C134.731 147.745 133.693 147.453 132.505 147.453C131.316 147.453 130.278 147.745 129.393 148.328C128.507 148.911 127.818 149.766 127.325 150.895C126.841 152.023 126.599 153.408 126.599 155.052C126.599 156.695 126.841 158.08 127.325 159.208C127.818 160.337 128.507 161.192 129.393 161.775C130.278 162.358 131.316 162.65 132.505 162.65C133.693 162.65 134.731 162.358 135.617 161.775C136.503 161.192 137.188 160.337 137.672 159.208C138.165 158.08 138.411 156.695 138.411 155.052Z" fill="white"/>
<path d="M147.04 166.682V143.421H156.217C157.973 143.421 159.473 143.736 160.714 144.364C161.964 144.985 162.914 145.867 163.565 147.01C164.224 148.146 164.553 149.482 164.553 151.02C164.553 152.564 164.22 153.893 163.554 155.006C162.887 156.112 161.922 156.96 160.657 157.55C159.401 158.141 157.879 158.436 156.092 158.436H149.947V154.484H155.297C156.236 154.484 157.015 154.355 157.636 154.098C158.257 153.84 158.719 153.454 159.022 152.939C159.332 152.424 159.488 151.784 159.488 151.02C159.488 150.247 159.332 149.596 159.022 149.066C158.719 148.536 158.253 148.135 157.625 147.862C157.004 147.582 156.22 147.442 155.274 147.442H151.957V166.682H147.04ZM159.601 156.096L165.382 166.682H159.953L154.297 156.096H159.601Z" fill="white"/>
<path d="M168.029 166.682V143.421H177.206C178.97 143.421 180.473 143.758 181.715 144.432C182.956 145.098 183.903 146.026 184.554 147.215C185.213 148.396 185.542 149.759 185.542 151.304C185.542 152.848 185.209 154.211 184.543 155.392C183.876 156.573 182.911 157.493 181.647 158.152C180.39 158.811 178.868 159.14 177.081 159.14H171.232V155.199H176.286C177.232 155.199 178.012 155.036 178.625 154.711C179.246 154.378 179.708 153.92 180.011 153.337C180.321 152.746 180.477 152.068 180.477 151.304C180.477 150.531 180.321 149.857 180.011 149.282C179.708 148.699 179.246 148.248 178.625 147.93C178.004 147.605 177.217 147.442 176.263 147.442H172.947V166.682H168.029Z" fill="white"/>
</svg>
