<svg width="73" height="65" viewBox="0 0 73 65" fill="none" xmlns="http://www.w3.org/2000/svg">
<path fill-rule="evenodd" clip-rule="evenodd" d="M32.5905 24.7029C35.7096 25.7687 38.2781 28.0243 39.7335 30.9756C41.1889 33.9269 41.4126 37.3332 40.3554 40.4486H48.6512C49.1742 37.8077 49.1742 35.0902 48.6512 32.4492C47.8549 28.4969 45.9055 24.8674 43.048 22.0168C40.1905 19.1662 36.5523 17.2215 32.5905 16.4271V8.301C40.0713 9.37052 46.8221 13.3547 51.3637 19.3805C55.9053 25.4063 57.8674 32.9823 56.8199 40.4486H64.8964C65.1887 37.7901 65.1887 35.1077 64.8964 32.4492C63.9843 24.2145 60.2875 16.5353 54.4151 10.6771C48.5427 4.8188 40.845 1.13092 32.5905 0.220973C29.9064 -0.0736577 27.198 -0.0736577 24.514 0.220973V8.27803C18.3941 9.14096 12.7214 11.9652 8.35101 16.3251C3.98062 20.685 1.1495 26.3441 0.284481 32.4492C-0.576457 38.4824 0.528713 44.6319 3.437 49.991C6.34529 55.3501 10.9028 59.6351 16.4375 62.2142C18.9951 63.4066 21.7176 64.2098 24.514 64.5968C27.1932 64.9694 29.9112 64.9694 32.5905 64.5968V48.4827H24.514V56.5398C20.5502 55.7496 16.9097 53.8064 14.0515 50.955C11.1933 48.1037 9.24534 44.4719 8.4533 40.5177C7.9303 37.8767 7.9303 35.1592 8.4533 32.5183C9.24534 28.564 11.1933 24.9323 14.0515 22.0809C16.9097 19.2296 20.5502 17.2863 24.514 16.4962V40.5177H32.5905V24.7029Z" fill="#172039"/>
<path d="M46.1208 47.0229H44.1845C44.1492 46.7724 44.077 46.5499 43.9679 46.3554C43.8589 46.1579 43.7189 45.9899 43.548 45.8514C43.377 45.7129 43.1796 45.6068 42.9556 45.5331C42.7346 45.4594 42.4944 45.4226 42.235 45.4226C41.7664 45.4226 41.3583 45.539 41.0105 45.7718C40.6627 46.0017 40.3931 46.3377 40.2015 46.7797C40.01 47.2189 39.9142 47.7523 39.9142 48.38C39.9142 49.0254 40.01 49.5677 40.2015 50.0068C40.396 50.446 40.6672 50.7775 41.0149 51.0015C41.3627 51.2255 41.765 51.3375 42.2218 51.3375C42.4782 51.3375 42.7154 51.3036 42.9335 51.2358C43.1545 51.168 43.3505 51.0693 43.5214 50.9396C43.6924 50.807 43.8338 50.6464 43.9458 50.4577C44.0608 50.2691 44.1403 50.054 44.1845 49.8123L46.1208 49.8212C46.0707 50.2367 45.9454 50.6375 45.745 51.0236C45.5476 51.4067 45.2809 51.75 44.9449 52.0536C44.6119 52.3542 44.214 52.5929 43.7513 52.7697C43.2916 52.9436 42.7714 53.0306 42.1908 53.0306C41.3833 53.0306 40.6613 52.8478 40.0247 52.4824C39.3911 52.117 38.8901 51.588 38.5217 50.8954C38.1562 50.2028 37.9735 49.3644 37.9735 48.38C37.9735 47.3927 38.1592 46.5528 38.5305 45.8603C38.9018 45.1677 39.4058 44.6401 40.0424 44.2777C40.679 43.9122 41.3951 43.7295 42.1908 43.7295C42.7154 43.7295 43.2017 43.8032 43.6496 43.9505C44.1005 44.0979 44.4999 44.313 44.8476 44.5959C45.1954 44.8759 45.4783 45.2193 45.6964 45.626C45.9174 46.0327 46.0589 46.4983 46.1208 47.0229Z" fill="#172039"/>
<path d="M50.2342 53.0394C49.6094 53.0394 49.0701 52.9274 48.6163 52.7034C48.1624 52.4795 47.8132 52.1759 47.5686 51.7928C47.3269 51.4067 47.2061 50.9764 47.2061 50.5019C47.2061 50.1483 47.2768 49.8344 47.4183 49.5603C47.5597 49.2863 47.7572 49.0343 48.0106 48.8044C48.2641 48.5716 48.5588 48.3402 48.8948 48.1104L50.6498 46.9566C50.8767 46.8122 51.0432 46.6604 51.1493 46.5012C51.2554 46.3392 51.3084 46.1638 51.3084 45.9752C51.3084 45.7954 51.2362 45.6289 51.0918 45.4757C50.9474 45.3224 50.7426 45.2473 50.4774 45.2502C50.3005 45.2502 50.1473 45.29 50.0176 45.3696C49.8879 45.4462 49.7863 45.5479 49.7126 45.6746C49.6418 45.7984 49.6065 45.9369 49.6065 46.0901C49.6065 46.2787 49.6595 46.4703 49.7656 46.6648C49.8717 46.8593 50.0132 47.0656 50.19 47.2837C50.3668 47.4988 50.5599 47.7317 50.7691 47.9822L55.0616 52.9068H53.0988L49.5181 48.9193C49.2823 48.6512 49.0465 48.3712 48.8108 48.0794C48.5779 47.7847 48.3834 47.4723 48.2272 47.1422C48.071 46.8092 47.9929 46.4482 47.9929 46.0592C47.9929 45.6201 48.0946 45.2251 48.298 44.8744C48.5043 44.5237 48.7931 44.2467 49.1644 44.0434C49.5358 43.8371 49.969 43.7339 50.4641 43.7339C50.9474 43.7339 51.3644 43.8326 51.7151 44.0301C52.0688 44.2246 52.3399 44.484 52.5285 44.8081C52.7201 45.1294 52.8159 45.483 52.8159 45.8691C52.8159 46.2964 52.7098 46.684 52.4976 47.0317C52.2884 47.3765 51.9936 47.686 51.6135 47.9601L49.7656 49.2907C49.5151 49.4734 49.3295 49.6605 49.2086 49.8521C49.0907 50.0407 49.0318 50.222 49.0318 50.3959C49.0318 50.611 49.0848 50.804 49.1909 50.975C49.297 51.1459 49.4473 51.2815 49.6418 51.3817C49.8364 51.4789 50.0648 51.5275 50.327 51.5275C50.6453 51.5275 50.9592 51.4553 51.2687 51.3109C51.581 51.1636 51.864 50.9558 52.1174 50.6876C52.3738 50.4165 52.5786 50.0952 52.7319 49.7239C52.8851 49.3526 52.9618 48.9415 52.9618 48.4905H54.5223C54.5223 49.0446 54.4618 49.5441 54.341 49.9891C54.2202 50.4312 54.0522 50.8173 53.8371 51.1474C53.6219 51.4745 53.3758 51.7427 53.0988 51.9519C53.0104 52.0079 52.9249 52.061 52.8424 52.1111C52.7599 52.1612 52.6744 52.2142 52.586 52.2702C52.25 52.5413 51.8743 52.7373 51.4587 52.8582C51.0461 52.979 50.638 53.0394 50.2342 53.0394Z" fill="#172039"/>
<path d="M59.091 52.9068H55.8816V43.8533H59.1175C60.0282 43.8533 60.8121 44.0345 61.4693 44.397C62.1265 44.7566 62.632 45.2738 62.9856 45.9487C63.3422 46.6236 63.5205 47.4311 63.5205 48.3712C63.5205 49.3143 63.3422 50.1247 62.9856 50.8026C62.632 51.4804 62.1236 52.0006 61.4605 52.363C60.8003 52.7255 60.0105 52.9068 59.091 52.9068ZM57.7958 51.2667H59.0114C59.5773 51.2667 60.0532 51.1665 60.4393 50.9661C60.8283 50.7628 61.1201 50.4489 61.3146 50.0245C61.5121 49.5972 61.6108 49.0461 61.6108 48.3712C61.6108 47.7022 61.5121 47.1555 61.3146 46.7311C61.1201 46.3067 60.8298 45.9943 60.4437 45.7939C60.0577 45.5935 59.5817 45.4933 59.0159 45.4933H57.7958V51.2667Z" fill="#172039"/>
<path d="M46.1208 58.9927H44.1845C44.1492 58.7422 44.077 58.5197 43.9679 58.3252C43.8589 58.1277 43.7189 57.9597 43.548 57.8212C43.377 57.6827 43.1796 57.5766 42.9556 57.5029C42.7346 57.4292 42.4944 57.3924 42.235 57.3924C41.7664 57.3924 41.3583 57.5088 41.0105 57.7416C40.6627 57.9715 40.3931 58.3075 40.2015 58.7495C40.01 59.1887 39.9142 59.7221 39.9142 60.3498C39.9142 60.9952 40.01 61.5375 40.2015 61.9766C40.396 62.4157 40.6672 62.7473 41.0149 62.9713C41.3627 63.1953 41.765 63.3072 42.2218 63.3072C42.4782 63.3072 42.7154 63.2734 42.9335 63.2056C43.1545 63.1378 43.3505 63.0391 43.5214 62.9094C43.6924 62.7768 43.8338 62.6161 43.9458 62.4275C44.0608 62.2389 44.1403 62.0238 44.1845 61.7821L46.1208 61.791C46.0707 62.2065 45.9454 62.6073 45.745 62.9934C45.5476 63.3765 45.2809 63.7198 44.9449 64.0234C44.6119 64.324 44.214 64.5627 43.7513 64.7395C43.2916 64.9134 42.7714 65.0004 42.1908 65.0004C41.3833 65.0004 40.6613 64.8176 40.0247 64.4522C39.3911 64.0868 38.8901 63.5577 38.5217 62.8652C38.1562 62.1726 37.9735 61.3342 37.9735 60.3498C37.9735 59.3625 38.1592 58.5226 38.5305 57.83C38.9018 57.1375 39.4058 56.6099 40.0424 56.2474C40.679 55.882 41.3951 55.6993 42.1908 55.6993C42.7154 55.6993 43.2017 55.773 43.6496 55.9203C44.1005 56.0677 44.4999 56.2828 44.8476 56.5657C45.1954 56.8457 45.4783 57.189 45.6964 57.5957C45.9174 58.0024 46.0589 58.4681 46.1208 58.9927Z" fill="#172039"/>
<path d="M55.8131 60.3498C55.8131 61.3371 55.6259 62.177 55.2517 62.8696C54.8803 63.5622 54.3734 64.0912 53.731 64.4566C53.0914 64.8191 52.3723 65.0004 51.5737 65.0004C50.7691 65.0004 50.0471 64.8176 49.4076 64.4522C48.768 64.0868 48.2626 63.5577 47.8913 62.8652C47.5199 62.1726 47.3343 61.3342 47.3343 60.3498C47.3343 59.3625 47.5199 58.5226 47.8913 57.83C48.2626 57.1375 48.768 56.6099 49.4076 56.2474C50.0471 55.882 50.7691 55.6993 51.5737 55.6993C52.3723 55.6993 53.0914 55.882 53.731 56.2474C54.3734 56.6099 54.8803 57.1375 55.2517 57.83C55.6259 58.5226 55.8131 59.3625 55.8131 60.3498ZM53.8724 60.3498C53.8724 59.7103 53.7766 59.171 53.5851 58.7319C53.3965 58.2927 53.1297 57.9597 52.7849 57.7328C52.4401 57.5059 52.0364 57.3924 51.5737 57.3924C51.111 57.3924 50.7072 57.5059 50.3624 57.7328C50.0176 57.9597 49.7494 58.2927 49.5579 58.7319C49.3692 59.171 49.2749 59.7103 49.2749 60.3498C49.2749 60.9893 49.3692 61.5287 49.5579 61.9678C49.7494 62.4069 50.0176 62.7399 50.3624 62.9669C50.7072 63.1938 51.111 63.3072 51.5737 63.3072C52.0364 63.3072 52.4401 63.1938 52.7849 62.9669C53.1297 62.7399 53.3965 62.4069 53.5851 61.9678C53.7766 61.5287 53.8724 60.9893 53.8724 60.3498Z" fill="#172039"/>
<path d="M57.231 64.8766V55.8231H60.8029C61.4866 55.8231 62.0702 55.9454 62.5535 56.19C63.0398 56.4316 63.4096 56.775 63.6631 57.22C63.9195 57.6621 64.0477 58.1822 64.0477 58.7805C64.0477 59.3817 63.918 59.8989 63.6587 60.3321C63.3993 60.7624 63.0236 61.0925 62.5314 61.3224C62.0422 61.5522 61.4498 61.6672 60.7543 61.6672H58.3627V60.1288H60.4448C60.8103 60.1288 61.1138 60.0787 61.3555 59.9785C61.5972 59.8783 61.7769 59.728 61.8948 59.5276C62.0156 59.3272 62.0761 59.0781 62.0761 58.7805C62.0761 58.4799 62.0156 58.2264 61.8948 58.0201C61.7769 57.8138 61.5957 57.6576 61.3511 57.5515C61.1094 57.4425 60.8044 57.388 60.436 57.388H59.1452V64.8766H57.231ZM62.1203 60.7565L64.3704 64.8766H62.2573L60.0558 60.7565H62.1203Z" fill="#172039"/>
<path d="M65.4004 64.8766V55.8231H68.9723C69.659 55.8231 70.244 55.9542 70.7273 56.2165C71.2106 56.4758 71.579 56.8369 71.8325 57.2996C72.0889 57.7593 72.2171 58.2898 72.2171 58.891C72.2171 59.4922 72.0874 60.0227 71.828 60.4824C71.5687 60.9422 71.1929 61.3003 70.7008 61.5567C70.2116 61.8131 69.6192 61.9413 68.9237 61.9413H66.647V60.4073H68.6142C68.9826 60.4073 69.2862 60.3439 69.5249 60.2172C69.7665 60.0875 69.9463 59.9092 70.0642 59.6823C70.185 59.4524 70.2454 59.1887 70.2454 58.891C70.2454 58.5904 70.185 58.3281 70.0642 58.1041C69.9463 57.8772 69.7665 57.7018 69.5249 57.5781C69.2832 57.4513 68.9767 57.388 68.6054 57.388H67.3145V64.8766H65.4004Z" fill="#172039"/>
</svg>
